<svg width="300" height="80" viewBox="0 0 300 80" fill="none" xmlns="http://www.w3.org/2000/svg">
  <!-- Main beaker body - short and wide -->
  <rect x="20" y="10" width="260" height="60" fill="none" stroke="#000000" stroke-width="2" rx="5"/>
  
  <!-- Beaker rim with slight flare -->
  <path d="M 15 10 L 285 10 L 280 5 L 20 5 Z" fill="none" stroke="#000000" stroke-width="2"/>
  
  <!-- Pouring spout on left side -->
  <path d="M 15 10 L 10 15 L 15 20 L 20 15 Z" fill="none" stroke="#000000" stroke-width="2"/>
  
  <!-- Graduation marks -->
  <line x1="30" y1="15" x2="30" y2="25" stroke="#000000" stroke-width="1"/>
  <line x1="60" y1="15" x2="60" y2="25" stroke="#000000" stroke-width="1"/>
  <line x1="90" y1="15" x2="90" y2="25" stroke="#000000" stroke-width="1"/>
  <line x1="120" y1="15" x2="120" y2="25" stroke="#000000" stroke-width="1"/>
  <line x1="150" y1="15" x2="150" y2="25" stroke="#000000" stroke-width="1"/>
  <line x1="180" y1="15" x2="180" y2="25" stroke="#000000" stroke-width="1"/>
  <line x1="210" y1="15" x2="210" y2="25" stroke="#000000" stroke-width="1"/>
  <line x1="240" y1="15" x2="240" y2="25" stroke="#000000" stroke-width="1"/>
  <line x1="270" y1="15" x2="270" y2="25" stroke="#000000" stroke-width="1"/>
  
  <!-- Water fill area - matches beaker shape exactly -->
  <defs>
    <clipPath id="beakerBClip">
      <rect x="20" y="10" width="260" height="60" rx="5"/>
    </clipPath>
  </defs>
  
  <!-- Water fill container - starts empty (height=0) -->
  <rect x="20" y="70" width="260" height="0" fill="url(#waterGradient)" rx="5" clip-path="url(#beakerBClip)" class="water-fill" id="waterFillB"/>
  
  <!-- Water gradient definition -->
  <defs>
    <linearGradient id="waterGradient" x1="0%" y1="100%" x2="0%" y2="0%">
      <stop offset="0%" style="stop-color:#00d4ff;stop-opacity:0.8"/>
      <stop offset="100%" style="stop-color:#0099cc;stop-opacity:0.6"/>
    </linearGradient>
  </defs>
  
  <!-- Base support -->
  <rect x="30" y="75" width="240" height="5" fill="none" stroke="#000000" stroke-width="1"/>
</svg>
