<svg width="60" height="200" viewBox="0 0 60 200" fill="none" xmlns="http://www.w3.org/2000/svg">
  <!-- Main beaker body - tall and slim -->
  <rect x="10" y="20" width="40" height="160" fill="none" stroke="#000000" stroke-width="2" rx="5"/>
  
  <!-- Beaker rim with slight flare -->
  <path d="M 8 20 L 52 20 L 50 15 L 10 15 Z" fill="none" stroke="#000000" stroke-width="2"/>
  
  <!-- Pouring spout on left side -->
  <path d="M 8 20 L 5 25 L 8 30 L 10 25 Z" fill="none" stroke="#000000" stroke-width="2"/>
  
  <!-- Graduation marks -->
  <line x1="45" y1="30" x2="50" y2="30" stroke="#000000" stroke-width="1"/>
  <line x1="45" y1="50" x2="50" y2="50" stroke="#000000" stroke-width="1"/>
  <line x1="45" y1="70" x2="50" y2="70" stroke="#000000" stroke-width="1"/>
  <line x1="45" y1="90" x2="50" y2="90" stroke="#000000" stroke-width="1"/>
  <line x1="45" y1="110" x2="50" y2="110" stroke="#000000" stroke-width="1"/>
  <line x1="45" y1="130" x2="50" y2="130" stroke="#000000" stroke-width="1"/>
  <line x1="45" y1="150" x2="50" y2="150" stroke="#000000" stroke-width="1"/>
  <line x1="45" y1="170" x2="50" y2="170" stroke="#000000" stroke-width="1"/>
  
  <!-- Water fill area - matches beaker shape exactly -->
  <defs>
    <clipPath id="beakerAClip">
      <rect x="10" y="20" width="40" height="160" rx="5"/>
    </clipPath>
  </defs>
  
  <!-- Water fill container - starts empty (height=0) -->
  <rect x="10" y="180" width="40" height="0" fill="url(#waterGradient)" rx="5" clip-path="url(#beakerAClip)" class="water-fill" id="waterFillA"/>
  
  <!-- Water gradient definition -->
  <defs>
    <linearGradient id="waterGradient" x1="0%" y1="100%" x2="0%" y2="0%">
      <stop offset="0%" style="stop-color:#00d4ff;stop-opacity:0.8"/>
      <stop offset="100%" style="stop-color:#0099cc;stop-opacity:0.6"/>
    </linearGradient>
  </defs>
  
  <!-- Base support -->
  <rect x="20" y="195" width="20" height="5" fill="none" stroke="#000000" stroke-width="1"/>
</svg>
